<?xml version="1.0" encoding="UTF-8" standalone="no"?>
<!-- Created with Inkscape (http://www.inkscape.org/) -->

<svg
   xmlns:dc="http://purl.org/dc/elements/1.1/"
   xmlns:cc="http://creativecommons.org/ns#"
   xmlns:rdf="http://www.w3.org/1999/02/22-rdf-syntax-ns#"
   xmlns:svg="http://www.w3.org/2000/svg"
   xmlns="http://www.w3.org/2000/svg"
   xmlns:sodipodi="http://sodipodi.sourceforge.net/DTD/sodipodi-0.dtd"
   xmlns:inkscape="http://www.inkscape.org/namespaces/inkscape"
   width="16"
   height="16"
   viewBox="0 0 16 16"
   version="1.1"
   id="SVGRoot"
   inkscape:export-filename="/tmp/template.png"
   inkscape:export-xdpi="96"
   inkscape:export-ydpi="96"
   inkscape:version="0.92.2 2405546, 2018-03-11"
   sodipodi:docname="saved-no.svg">
  <sodipodi:namedview
     id="base"
     pagecolor="#E0E1E2"
     bordercolor="#666768"
     borderopacity="1.0"
     inkscape:pageopacity="0"
     inkscape:pageshadow="2"
     inkscape:zoom="50.75"
     inkscape:cx="8"
     inkscape:cy="8"
     inkscape:document-units="px"
     inkscape:current-layer="layer1"
     showgrid="true"
     inkscape:window-width="1920"
     inkscape:window-height="1019"
     inkscape:window-x="0"
     inkscape:window-y="0"
     inkscape:window-maximized="1"
     inkscape:grid-bbox="true"
     inkscape:pagecheckerboard="false"
     inkscape:snap-bbox="true"
     inkscape:bbox-nodes="false"
     inkscape:snap-others="false"
     inkscape:object-nodes="true"
     inkscape:snap-grids="true"
     inkscape:snap-bbox-midpoints="false"
     inkscape:snap-bbox-edge-midpoints="false"
     inkscape:bbox-paths="true">
    <inkscape:grid
       type="xygrid"
       id="grid1374"
       originx="1"
       originy="1"
       empspacing="7"
       dotted="false" />
  </sodipodi:namedview>
  <defs
     id="defs815" />
  <metadata
     id="metadata818">
    <rdf:RDF>
      <cc:Work
         rdf:about="">
        <dc:format>image/svg+xml</dc:format>
        <dc:type
           rdf:resource="http://purl.org/dc/dcmitype/StillImage" />
        <dc:title></dc:title>
        <dc:creator>
          <cc:Agent>
            <dc:title>Maciej Dworak</dc:title>
          </cc:Agent>
        </dc:creator>
        <dc:rights>
          <cc:Agent>
            <dc:title />
          </cc:Agent>
        </dc:rights>
        <dc:description>RawTherapee icon.</dc:description>
        <cc:license
           rdf:resource="http://creativecommons.org/licenses/by-sa/4.0/" />
      </cc:Work>
      <cc:License
         rdf:about="http://creativecommons.org/licenses/by-sa/4.0/">
        <cc:permits
           rdf:resource="http://creativecommons.org/ns#Reproduction" />
        <cc:permits
           rdf:resource="http://creativecommons.org/ns#Distribution" />
        <cc:requires
           rdf:resource="http://creativecommons.org/ns#Notice" />
        <cc:requires
           rdf:resource="http://creativecommons.org/ns#Attribution" />
        <cc:permits
           rdf:resource="http://creativecommons.org/ns#DerivativeWorks" />
        <cc:requires
           rdf:resource="http://creativecommons.org/ns#ShareAlike" />
      </cc:License>
    </rdf:RDF>
  </metadata>
  <g
     id="layer1"
     inkscape:groupmode="layer"
     inkscape:label="Layer 1"
     transform="translate(0,-8)">
    <g
       id="g1400">
      <g
         id="g1389">
        <g
           id="g1379">
          <g
             id="g1370">
            <g
               id="g1362">
              <g
                 id="g1355">
                <g
                   id="g1349">
                  <g
                     id="g1344">
                    <g
                       id="g1340" />
                  </g>
                </g>
              </g>
            </g>
          </g>
        </g>
      </g>
    </g>
    <path
       style="opacity:0.5;fill:#2a7fff;fill-opacity:1;fill-rule:nonzero;stroke:none;stroke-width:0;stroke-linecap:round;stroke-linejoin:miter;stroke-miterlimit:4;stroke-dasharray:none;stroke-opacity:1;paint-order:normal"
       d="M 2.9082031 1 C 1.8505668 1 1 1.8505667 1 2.9082031 L 1 13.091797 C 1 14.149434 1.8505668 15 2.9082031 15 L 4 15 L 4 10.775391 A 2.0002 2.0002 0 0 1 3.5859375 7.5859375 L 4.171875 7 L 3 7 L 3 3.2519531 A 2.0002 2.0002 0 0 1 3 2.7265625 L 3 2 L 3.2402344 2 A 2.0002 2.0002 0 0 1 4.7167969 1 L 2.9082031 1 z M 5.2441406 1 A 2.0002 2.0002 0 0 1 6.4140625 1.5859375 L 6.828125 2 L 9.171875 2 L 9.5859375 1.5859375 A 2.0002 2.0002 0 0 1 10.707031 1 L 5.2441406 1 z M 11.365234 1 A 2.0002 2.0002 0 0 1 12.775391 2 L 13 2 L 13 2.6425781 A 2.0002 2.0002 0 0 1 13 3.2929688 L 13 7 L 11.828125 7 L 12.414062 7.5859375 A 2.0002 2.0002 0 0 1 12 10.775391 L 12 15 L 13.091797 15 C 14.149434 15 15 14.149434 15 13.091797 L 15 2.9082031 C 15 1.8505667 14.149434 1 13.091797 1 L 11.365234 1 z M 8 8.828125 L 6.828125 10 L 9.171875 10 L 8 8.828125 z M 5.2929688 11 A 2.0002 2.0002 0 0 1 5 11.029297 L 5 14 L 6 14 L 6 11 L 5.2929688 11 z "
       transform="translate(0,8)"
       id="rect1969" />
    <path
       id="path1994"
       style="fill:none;fill-rule:evenodd;stroke:#c00000;stroke-width:2;stroke-linecap:butt;stroke-linejoin:miter;stroke-miterlimit:4;stroke-dasharray:none;stroke-opacity:1"
       d="m 11,11 -6,6 m 0,-6 6,6"
       inkscape:connector-curvature="0" />
  </g>
</svg>
