<?xml version="1.0" encoding="UTF-8" standalone="no"?>
<!-- Created with Inkscape (http://www.inkscape.org/) -->

<svg
   xmlns:dc="http://purl.org/dc/elements/1.1/"
   xmlns:cc="http://creativecommons.org/ns#"
   xmlns:rdf="http://www.w3.org/1999/02/22-rdf-syntax-ns#"
   xmlns:svg="http://www.w3.org/2000/svg"
   xmlns="http://www.w3.org/2000/svg"
   xmlns:sodipodi="http://sodipodi.sourceforge.net/DTD/sodipodi-0.dtd"
   xmlns:inkscape="http://www.inkscape.org/namespaces/inkscape"
   width="24px"
   height="24px"
   viewBox="0 0 24 24"
   version="1.1"
   id="SVGRoot"
   inkscape:export-filename="/tmp/template.png"
   inkscape:export-xdpi="96"
   inkscape:export-ydpi="96"
   inkscape:version="0.92.2 2405546, 2018-03-11"
   sodipodi:docname="trash-show.svg">
  <sodipodi:namedview
     id="base"
     pagecolor="#E0E1E2"
     bordercolor="#666768"
     borderopacity="1.0"
     inkscape:pageopacity="0"
     inkscape:pageshadow="2"
     inkscape:zoom="1"
     inkscape:cx="12"
     inkscape:cy="12"
     inkscape:document-units="px"
     inkscape:current-layer="layer1"
     showgrid="true"
     inkscape:window-width="1920"
     inkscape:window-height="1019"
     inkscape:window-x="0"
     inkscape:window-y="0"
     inkscape:window-maximized="1"
     inkscape:grid-bbox="true"
     inkscape:pagecheckerboard="false"
     inkscape:snap-bbox="true"
     inkscape:bbox-nodes="true"
     inkscape:snap-others="false"
     inkscape:object-nodes="false"
     inkscape:snap-grids="true"
     inkscape:snap-bbox-midpoints="false"
     inkscape:snap-smooth-nodes="false"
     inkscape:snap-global="false">
    <inkscape:grid
       type="xygrid"
       id="grid1374"
       originx="1"
       originy="1"
       empspacing="11"
       dotted="false" />
  </sodipodi:namedview>
  <defs
     id="defs815">
    <marker
       inkscape:stockid="TriangleOutM"
       orient="auto"
       refY="0.0"
       refX="0.0"
       id="marker8803"
       style="overflow:visible"
       inkscape:isstock="true">
      <path
         id="path8801"
         d="M 5.77,0.0 L -2.88,5.0 L -2.88,-5.0 L 5.77,0.0 z "
         style="fill-rule:evenodd;stroke:#000000;stroke-width:1pt;stroke-opacity:1;fill:#000000;fill-opacity:1"
         transform="scale(0.4)" />
    </marker>
    <marker
       inkscape:stockid="TriangleOutS"
       orient="auto"
       refY="0.0"
       refX="0.0"
       id="TriangleOutS"
       style="overflow:visible"
       inkscape:isstock="true">
      <path
         id="path8663"
         d="M 5.77,0.0 L -2.88,5.0 L -2.88,-5.0 L 5.77,0.0 z "
         style="fill-rule:evenodd;stroke:#000000;stroke-width:1pt;stroke-opacity:1;fill:#000000;fill-opacity:1"
         transform="scale(0.2)" />
    </marker>
    <marker
       inkscape:stockid="ExperimentalArrow"
       orient="auto-start-reverse"
       refY="3.0"
       refX="5.0"
       id="ExperimentalArrow"
       inkscape:isstock="true">
      <path
         id="path8768"
         d="m 10,3 -10,3 0,-6 z"
         style="fill:context-stroke;stroke:#000000;stroke-opacity:1" />
    </marker>
    <marker
       inkscape:stockid="TriangleOutM"
       orient="auto"
       refY="0.0"
       refX="0.0"
       id="TriangleOutM"
       style="overflow:visible"
       inkscape:isstock="true">
      <path
         id="path8660"
         d="M 5.77,0.0 L -2.88,5.0 L -2.88,-5.0 L 5.77,0.0 z "
         style="fill-rule:evenodd;stroke:#000000;stroke-width:1pt;stroke-opacity:1;fill:#000000;fill-opacity:1"
         transform="scale(0.4)" />
    </marker>
    <marker
       inkscape:stockid="Arrow2Mend"
       orient="auto"
       refY="0.0"
       refX="0.0"
       id="Arrow2Mend"
       style="overflow:visible;"
       inkscape:isstock="true">
      <path
         id="path8542"
         style="fill-rule:evenodd;stroke-width:0.625;stroke-linejoin:round;stroke:#000000;stroke-opacity:1;fill:#000000;fill-opacity:1"
         d="M 8.7185878,4.0337352 L -2.2072895,0.016013256 L 8.7185884,-4.0017078 C 6.9730900,-1.6296469 6.9831476,1.6157441 8.7185878,4.0337352 z "
         transform="scale(0.6) rotate(180) translate(0,0)" />
    </marker>
    <marker
       inkscape:stockid="Arrow1Sstart"
       orient="auto"
       refY="0.0"
       refX="0.0"
       id="marker8791"
       style="overflow:visible"
       inkscape:isstock="true">
      <path
         id="path8789"
         d="M 0.0,0.0 L 5.0,-5.0 L -12.5,0.0 L 5.0,5.0 L 0.0,0.0 z "
         style="fill-rule:evenodd;stroke:#000000;stroke-width:1pt;stroke-opacity:1;fill:#000000;fill-opacity:1"
         transform="scale(0.2) translate(6,0)" />
    </marker>
    <marker
       inkscape:stockid="Arrow1Send"
       orient="auto"
       refY="0.0"
       refX="0.0"
       id="marker8787"
       style="overflow:visible;"
       inkscape:isstock="true">
      <path
         id="path8785"
         d="M 0.0,0.0 L 5.0,-5.0 L -12.5,0.0 L 5.0,5.0 L 0.0,0.0 z "
         style="fill-rule:evenodd;stroke:#000000;stroke-width:1pt;stroke-opacity:1;fill:#000000;fill-opacity:1"
         transform="scale(0.2) rotate(180) translate(6,0)" />
    </marker>
    <marker
       inkscape:stockid="Arrow2Lstart"
       orient="auto"
       refY="0.0"
       refX="0.0"
       id="Arrow2Lstart"
       style="overflow:visible"
       inkscape:isstock="true">
      <path
         id="path8533"
         style="fill-rule:evenodd;stroke-width:0.625;stroke-linejoin:round;stroke:#000000;stroke-opacity:1;fill:#000000;fill-opacity:1"
         d="M 8.7185878,4.0337352 L -2.2072895,0.016013256 L 8.7185884,-4.0017078 C 6.9730900,-1.6296469 6.9831476,1.6157441 8.7185878,4.0337352 z "
         transform="scale(1.1) translate(1,0)" />
    </marker>
    <marker
       inkscape:stockid="Arrow1Send"
       orient="auto"
       refY="0.0"
       refX="0.0"
       id="Arrow1Send"
       style="overflow:visible;"
       inkscape:isstock="true">
      <path
         id="path8530"
         d="M 0.0,0.0 L 5.0,-5.0 L -12.5,0.0 L 5.0,5.0 L 0.0,0.0 z "
         style="fill-rule:evenodd;stroke:#000000;stroke-width:1pt;stroke-opacity:1;fill:#000000;fill-opacity:1"
         transform="scale(0.2) rotate(180) translate(6,0)" />
    </marker>
    <marker
       inkscape:stockid="Arrow1Sstart"
       orient="auto"
       refY="0.0"
       refX="0.0"
       id="Arrow1Sstart"
       style="overflow:visible"
       inkscape:isstock="true">
      <path
         id="path8527"
         d="M 0.0,0.0 L 5.0,-5.0 L -12.5,0.0 L 5.0,5.0 L 0.0,0.0 z "
         style="fill-rule:evenodd;stroke:#000000;stroke-width:1pt;stroke-opacity:1;fill:#000000;fill-opacity:1"
         transform="scale(0.2) translate(6,0)" />
    </marker>
    <marker
       inkscape:stockid="Arrow1Mend"
       orient="auto"
       refY="0.0"
       refX="0.0"
       id="Arrow1Mend"
       style="overflow:visible;"
       inkscape:isstock="true">
      <path
         id="path8524"
         d="M 0.0,0.0 L 5.0,-5.0 L -12.5,0.0 L 5.0,5.0 L 0.0,0.0 z "
         style="fill-rule:evenodd;stroke:#000000;stroke-width:1pt;stroke-opacity:1;fill:#000000;fill-opacity:1"
         transform="scale(0.4) rotate(180) translate(10,0)" />
    </marker>
  </defs>
  <metadata
     id="metadata818">
    <rdf:RDF>
      <cc:Work
         rdf:about="">
        <dc:format>image/svg+xml</dc:format>
        <dc:type
           rdf:resource="http://purl.org/dc/dcmitype/StillImage" />
        <dc:title />
        <dc:creator>
          <cc:Agent>
            <dc:title>Maciej Dworak</dc:title>
          </cc:Agent>
        </dc:creator>
        <dc:rights>
          <cc:Agent>
            <dc:title />
          </cc:Agent>
        </dc:rights>
        <dc:description>RawTherapee icon.</dc:description>
        <cc:license
           rdf:resource="http://creativecommons.org/licenses/by-sa/4.0/" />
      </cc:Work>
      <cc:License
         rdf:about="http://creativecommons.org/licenses/by-sa/4.0/">
        <cc:permits
           rdf:resource="http://creativecommons.org/ns#Reproduction" />
        <cc:permits
           rdf:resource="http://creativecommons.org/ns#Distribution" />
        <cc:requires
           rdf:resource="http://creativecommons.org/ns#Notice" />
        <cc:requires
           rdf:resource="http://creativecommons.org/ns#Attribution" />
        <cc:permits
           rdf:resource="http://creativecommons.org/ns#DerivativeWorks" />
        <cc:requires
           rdf:resource="http://creativecommons.org/ns#ShareAlike" />
      </cc:License>
    </rdf:RDF>
  </metadata>
  <g
     id="layer1"
     inkscape:groupmode="layer"
     inkscape:label="Layer 1">
    <path
       style="opacity:0.7;fill:#2a7fff;stroke:none;stroke-width:2.03374696"
       id="path8"
       d="M 9.7366771,1.132175 C 9.2661442,1.3724936 8.9623825,1.7930507 8.8968652,2.2796953 l -0.041693,0.282374 H 12 15.144828 l -0.04169,-0.246326 C 15.04953,1.9672812 14.805329,1.5106766 14.573041,1.3364455 14.144201,1.006008 14.096552,0.99999997 11.958307,0.99999997 10.070219,1.006008 9.9630094,1.0120155 9.7366771,1.132175 Z"
       inkscape:connector-curvature="0" />
    <path
       style="opacity:0.7;fill:#2a7fff;stroke:none;stroke-width:2.03374696"
       id="path10"
       d="M 5.0611283,3.38516 C 4.2451412,3.5233431 3.4768023,4.0280117 2.9943574,4.7309434 2.7501565,5.0854129 2.5000001,5.8304001 2.5000001,6.1908777 V 6.4672438 H 12 21.5 V 6.2569652 C 21.5,4.9952934 20.386207,3.6915661 19.069906,3.409192 18.84953,3.361128 16.76489,3.3431045 11.982132,3.3491125 8.2595611,3.35512 5.1445139,3.373144 5.0611283,3.38516 Z"
       inkscape:connector-curvature="0" />
    <path
       style="opacity:0.7;fill:#2a7fff;stroke:none;stroke-width:1.34910131"
       d="m 3.8691406,7.3085938 v 3.5800782 0.929687 c 0,5.635467 0.02481,8.910964 0.060547,9.115235 0.1489028,0.799058 0.6854635,1.502655 1.4121094,1.86914 L 5.7460938,23 H 12 18.253906 l 0.328125,-0.15625 c 0.364257,-0.175585 0.854702,-0.328141 0.832817,-0.712891 -0.02375,-0.417554 -0.33542,-0.998629 -0.789848,-1.001953 -0.678193,-0.005 -2.12408,0.867983 -3.271484,0.871094 -3.670761,2.1e-5 -6.6465057,-2.975723 -6.6464848,-6.646484 0.00104,-2.015113 0.9162385,-3.920942 2.4882808,-5.181641 0.1175,-0.148699 0.267015,-0.2628296 0.449219,-0.3261719 1.095564,-0.739992 2.386924,-1.1364442 3.708985,-1.1386719 1.771832,0.00131 3.4698,0.7100236 4.716796,1.9687498 V 7.3085938 h -8.099609 z m 3.4238282,2.4707031 c 0.5573529,0 1.0078125,0.4514671 1.0078124,1.0136721 v 8.720703 c 0,0.562205 -0.4504595,1.015625 -1.0078124,1.015625 -0.5573532,0 -1.0039063,-0.45342 -1.0039063,-1.015625 v -8.720703 c 0,-0.562205 0.4465532,-1.0136721 1.0039063,-1.0136721 z"
       id="path5310"
       inkscape:connector-curvature="0"
       sodipodi:nodetypes="ccsccccccsscccccccccsssssss" />
    <path
       style="color:#000000;display:inline;overflow:visible;visibility:visible;opacity:1;fill:#c00000;fill-opacity:1;fill-rule:nonzero;stroke:none;stroke-width:1.50748265;marker:none;enable-background:accumulate"
       d="m 15.330078,10 c -1.364856,0 -2.728928,0.545431 -3.769531,1.583984 -2.081169,2.077113 -2.081169,5.436558 0,7.513672 1.64763,1.644377 4.091786,1.976798 6.078125,1.017578 0.05225,-0.02526 0.118329,-0.04914 0.169922,-0.07617 0.309657,-0.122066 1.062171,-0.355788 1.466797,0.0059 0.404627,0.361628 0.297215,0.778637 0.783203,1.263672 L 21.767578,23 22.998047,21.697266 21.332031,20.039062 C 20.846044,19.554028 20.460818,19.659604 20.0625,19.191406 19.664182,18.723209 20.11283,17.714114 20.14258,17.650391 21.103668,15.667984 20.755056,13.228367 19.107424,11.583984 18.066815,10.545431 16.694935,10 15.330078,10 Z m -0.01953,1.623047 A 3.6885595,3.6885595 0 0 1 19,15.310547 3.6885595,3.6885595 0 0 1 15.310547,19 a 3.6885595,3.6885595 0 0 1 -3.6875,-3.689453 3.6885595,3.6885595 0 0 1 3.687501,-3.6875 z"
       id="path3803"
       inkscape:connector-curvature="0" />
  </g>
</svg>
